HIERARCHY
ROOT hip
{
  OFFSET 0 0 0
  CHANNELS 6 Xposition Yposition Zposition Zrotation Yrotation Xrotation
  JOINT abdomen
  {
    OFFSET 0 20.6881 -0.73152
    CHANNELS 3 Zrotation Xrotation Yrotation
    JOINT chest
    {
      OFFSET 0 11.7043 -0.48768
      CHANNELS 3 Zrotation Xrotation Yrotation
      JOINT neck
      {
        OFFSET 0 22.1894 -2.19456
        CHANNELS 3 Zrotation Xrotation Yrotation
        JOINT head
        {
          OFFSET -0.24384 7.07133 1.2192
          CHANNELS 3 Zrotation Xrotation Yrotation
          JOINT leftEye
          {
            OFFSET 4.14528 8.04674 8.04672
            CHANNELS 3 Zrotation Xrotation Yrotation
            End Site
            {
              OFFSET 1 0 0
            }
          }
          JOINT rightEye
          {
            OFFSET -3.6576 8.04674 8.04672
            CHANNELS 3 Zrotation Xrotation Yrotation
            End Site
            {
              OFFSET 1 0 0
            }
          }
        }
      }
      JOINT rCollar
      {
        OFFSET -2.68224 19.2634 -4.8768
        CHANNELS 3 Zrotation Xrotation Yrotation
        JOINT rShldr
        {
          OFFSET -8.77824 -1.95073 1.46304
          CHANNELS 3 Zrotation Xrotation Yrotation
          JOINT rForeArm
          {
            OFFSET -28.1742 -1.7115 0.48768
            CHANNELS 3 Zrotation Xrotation Yrotation
            JOINT rHand
            {
              OFFSET -22.5879 0.773209 7.07136
              CHANNELS 3 Zrotation Xrotation Yrotation
              JOINT rThumb1
              {
                OFFSET -1.2192 -0.487915 3.41376
                CHANNELS 3 Zrotation Xrotation Yrotation
                JOINT rThumb2
                {
                  OFFSET -3.37035 -0.52449 3.41376
                  CHANNELS 3 Zrotation Xrotation Yrotation
                  End Site
                  {
                    OFFSET -1.78271 -1.18214 1.43049
                  }
                }
              }
              JOINT rIndex1
              {
                OFFSET -7.75947 0.938293 5.60832
                CHANNELS 3 Zrotation Xrotation Yrotation
                JOINT rIndex2
                {
                  OFFSET -2.54057 -0.884171 1.56538
                  CHANNELS 3 Zrotation Xrotation Yrotation
                  End Site
                  {
                    OFFSET -1.62519 -0.234802 1.16502
                  }
                }
              }
              JOINT rMid1
              {
                OFFSET -8.24714 1.18213 3.41376
                CHANNELS 3 Zrotation Xrotation Yrotation
                JOINT rMid2
                {
                  OFFSET -3.10165 -0.590103 1.0647
                  CHANNELS 3 Zrotation Xrotation Yrotation
                  End Site
                  {
                    OFFSET -2.48547 -0.328903 0.83742
                  }
                }
              }
              JOINT rRing1
              {
                OFFSET -8.82822 0.546677 1.51678
                CHANNELS 3 Zrotation Xrotation Yrotation
                JOINT rRing2
                {
                  OFFSET -2.60934 -0.819778 -0.0198488
                  CHANNELS 3 Zrotation Xrotation Yrotation
                  End Site
                  {
                    OFFSET -2.33842 -0.294052 0.168128
                  }
                }
              }
              JOINT rPinky1
              {
                OFFSET -8.27202 -0.0477905 -0.4584
                CHANNELS 3 Zrotation Xrotation Yrotation
                JOINT rPinky2
                {
                  OFFSET -1.82734 -0.647385 -0.700984
                  CHANNELS 3 Zrotation Xrotation Yrotation
                  End Site
                  {
                    OFFSET -1.69225 -0.51767 -0.607171
                  }
                }
              }
            }
          }
        }
      }
      JOINT lCollar
      {
        OFFSET 2.68224 19.2634 -4.8768
        CHANNELS 3 Zrotation Xrotation Yrotation
        JOINT lShldr
        {
          OFFSET 8.77824 -1.95073 1.46304
          CHANNELS 3 Zrotation Xrotation Yrotation
          JOINT lForeArm
          {
            OFFSET 28.1742 -1.7115 0.48768
            CHANNELS 3 Zrotation Xrotation Yrotation
            JOINT lHand
            {
              OFFSET 22.5879 0.773209 7.07136
              CHANNELS 3 Zrotation Xrotation Yrotation
              JOINT lThumb1
              {
                OFFSET 1.2192 -0.487915 3.41376
                CHANNELS 3 Zrotation Xrotation Yrotation
                JOINT lThumb2
                {
                  OFFSET 3.37035 -0.52449 3.41376
                  CHANNELS 3 Zrotation Xrotation Yrotation
                  End Site
                  {
                    OFFSET 1.78271 -1.18214 1.43049
                  }
                }
              }
              JOINT lIndex1
              {
                OFFSET 7.75947 0.938293 5.60832
                CHANNELS 3 Zrotation Xrotation Yrotation
                JOINT lIndex2
                {
                  OFFSET 2.54057 -0.884171 1.56538
                  CHANNELS 3 Zrotation Xrotation Yrotation
                  End Site
                  {
                    OFFSET 1.62519 -0.234802 1.16502
                  }
                }
              }
              JOINT lMid1
              {
                OFFSET 8.24714 1.18213 3.41376
                CHANNELS 3 Zrotation Xrotation Yrotation
                JOINT lMid2
                {
                  OFFSET 3.10165 -0.590103 1.0647
                  CHANNELS 3 Zrotation Xrotation Yrotation
                  End Site
                  {
                    OFFSET 2.48547 -0.328903 0.83742
                  }
                }
              }
              JOINT lRing1
              {
                OFFSET 8.82822 0.546677 1.51678
                CHANNELS 3 Zrotation Xrotation Yrotation
                JOINT lRing2
                {
                  OFFSET 2.60934 -0.819778 -0.0198488
                  CHANNELS 3 Zrotation Xrotation Yrotation
                  End Site
                  {
                    OFFSET 2.33842 -0.294052 0.168128
                  }
                }
              }
              JOINT lPinky1
              {
                OFFSET 8.27202 -0.0477905 -0.4584
                CHANNELS 3 Zrotation Xrotation Yrotation
                JOINT lPinky2
                {
                  OFFSET 1.82734 -0.647385 -0.700984
                  CHANNELS 3 Zrotation Xrotation Yrotation
                  End Site
                  {
                    OFFSET 1.69225 -0.51767 -0.607171
                  }
                }
              }
            }
          }
        }
      }
    }
  }
  JOINT rButtock
  {
    OFFSET -8.77824 4.35084 1.2192
    CHANNELS 3 Zrotation Xrotation Yrotation
    JOINT rThigh
    {
      OFFSET 0 -1.70687 -2.19456
      CHANNELS 3 Zrotation Xrotation Yrotation
      JOINT rShin
      {
        OFFSET 0 -36.8199 0.73152
        CHANNELS 3 Zrotation Xrotation Yrotation
        JOINT rFoot
        {
          OFFSET 0.73152 -45.1104 -5.12064
          CHANNELS 3 Zrotation Xrotation Yrotation
          End Site
          {
            OFFSET -1.1221 -3.69964 12.103
          }
        }
      }
    }
  }
  JOINT lButtock
  {
    OFFSET 8.77824 4.35084 1.2192
    CHANNELS 3 Zrotation Xrotation Yrotation
    JOINT lThigh
    {
      OFFSET 0 -1.70687 -2.19456
      CHANNELS 3 Zrotation Xrotation Yrotation
      JOINT lShin
      {
        OFFSET 0 -36.8199 0.73152
        CHANNELS 3 Zrotation Xrotation Yrotation
        JOINT lFoot
        {
          OFFSET -0.73152 -45.1104 -5.12064
          CHANNELS 3 Zrotation Xrotation Yrotation
          End Site
          {
            OFFSET 1.1221 -3.69964 12.103
          }
        }
      }
    }
  }
}
MOTION
Frames:	4
Frame Time:	0.03333
0.8359339779614557 31.489702658846273 -49.94822593833953 14.308897972106934 33.41899871826172 15.572198867797852 -16.64760398864746 11.944599151611328 -1.1093800067901611 4.648958683013916 -10.439099311828613 -0.291716992855072 -10.15929889678955 15.247298240661621 -11.163899421691895 8.734538078308105 -25.33759880065918 -19.84779930114746 -0.0 0.0 -0.0 -0.0 0.0 -0.0 8.905552619127566e-14 -2.035554884372015e-13 9.859719377752763e-13 32.24519348144531 15.029600143432617 33.67669677734375 -15.868396759033203 -8.16487979888916 30.722702026367188 -1.168160080909729 28.795400619506836 4.427740097045898 -4.135904063673479e-09 -3.017570193719621e-09 -4.228769778791275e-09 -7.233853072108332e-09 -5.8137739067376515e-09 -7.223179387949585e-09 -4.135904063673479e-09 -3.0175955068045823e-09 -4.2287826573783605e-09 7.7309088706970215 5.474880218505859 0.41731396317481995 -4.135904063673479e-09 -3.01755753717714e-09 -4.228769778791275e-09 2.9055399894714355 0.9651829600334167 0.10290198773145676 -4.135904063673479e-09 -3.017570193719621e-09 -4.228757344293399e-09 10.27859878540039 0.73180091381073 0.025912299752235413 -4.135904063673479e-09 -3.01755753717714e-09 -4.228757344293399e-09 2.2216696739196777 -0.7334870100021362 -0.2089199721813202 8.905552619127566e-14 -2.035554884372015e-13 9.859719377752763e-13 -110.17799377441406 52.565101623535156 46.26899719238281 28.248598098754883 -38.81900405883789 -81.82349395751953 2.9252190589904785 -42.82279586791992 7.474649429321289 -4.103500650387559e-09 -4.0571532800015575e-09 -2.544971566820209e-09 -6.9975762961860255e-09 -6.59863275132011e-09 -4.5170871487698605e-09 -4.103500650387559e-09 -4.0571532800015575e-09 -2.544958910277728e-09 -7.7309088706970215 5.474880218505859 -0.41731396317481995 -4.103487771800474e-09 -4.057166158588643e-09 -2.544971566820209e-09 -2.9055399894714355 0.9651829600334167 -0.10290198773145676 -4.103500650387559e-09 -4.057140845503682e-09 -2.544971566820209e-09 -10.27859878540039 0.73180091381073 -0.025912299752235413 -4.103487771800474e-09 -4.057140845503682e-09 -2.5449780061137517e-09 -2.2216696739196777 -0.7334870100021362 0.2089199721813202 -0.0 0.0 -0.0 -75.29539489746094 -55.36640167236328 -61.82049560546875 -2.176239252090454 72.03500366210938 3.233339786529541 -0.841253936290741 1.6366499662399292 -11.292998313903809 -0.0 0.0 -0.0 12.82029914855957 12.615999221801758 -2.1089000701904297 -0.2288009226322174 17.888498306274414 -2.1872498989105225 1.0839500427246094 -7.9156904220581055 28.415695190429688
0.8917916318496836 31.312660740464956 -50.57504178998171 14.885498046875 32.940101623535156 14.796198844909668 -18.17140007019043 14.063499450683594 0.15928499400615692 4.922510147094727 -10.863399505615234 0.00012809099280275404 -9.89585018157959 15.889698028564453 -11.562297821044922 9.550379753112793 -27.5159969329834 -20.471599578857422 -0.0 0.0 -0.0 -0.0 0.0 -0.0 -1.0177774421860075e-13 6.361109013662547e-14 1.087749681993877e-12 30.216997146606445 17.433298110961914 33.31330490112305 -16.493295669555664 -9.024930000305176 31.16099739074707 -0.19184499979019165 14.615700721740723 2.0718700885772705 -7.68657315575183e-09 -9.176726933901591e-09 -3.5552301103081163e-09 -1.332670152009996e-08 -1.6298001170866883e-08 -6.06417227544398e-09 -7.68657315575183e-09 -9.176713611225296e-09 -3.55524920614414e-09 7.7309088706970215 5.474880218505859 0.41731396317481995 -7.686585590249706e-09 -9.176713611225296e-09 -3.5552301103081163e-09 2.9055399894714355 0.9651829600334167 0.10290198773145676 -7.68657315575183e-09 -9.176726933901591e-09 -3.5552301103081163e-09 10.27859878540039 0.73180091381073 0.025912299752235413 -7.68657315575183e-09 -9.176713611225296e-09 -3.5552174537656356e-09 2.2216696739196777 -0.7334870100021362 -0.2089199721813202 -1.0177774421860075e-13 6.361109013662547e-14 1.087749681993877e-12 -112.57498931884766 49.30799865722656 51.4944953918457 28.152996063232422 -39.51100158691406 -83.05039978027344 4.147769927978516 -48.68949890136719 9.185178756713867 -5.932166757816049e-09 -5.177026807245966e-09 -2.006382837649312e-09 -1.015099382328799e-08 -8.478964197422556e-09 -3.6716767404243456e-09 -5.932179636403134e-09 -5.177026807245966e-09 -2.0063510852708077e-09 -7.7309088706970215 5.474880218505859 -0.41731396317481995 -5.932166757816049e-09 -5.177026807245966e-09 -2.0063701811068313e-09 -2.9055399894714355 0.9651829600334167 -0.10290198773145676 -5.932179636403134e-09 -5.17701392865888e-09 -2.0063701811068313e-09 -10.27859878540039 0.73180091381073 -0.025912299752235413 -5.932153879228963e-09 -5.17701392865888e-09 -2.006382837649312e-09 -2.2216696739196777 -0.7334870100021362 0.2089199721813202 -0.0 0.0 -0.0 -75.2887954711914 -56.313194274902344 -59.878196716308594 -2.078580141067505 71.35169982910156 3.086979866027832 -0.4036719799041748 0.93327796459198 -7.038468837738037 -0.0 0.0 -0.0 12.123799324035645 11.29909896850586 -1.0761798620224 -0.23073498904705048 21.86359977722168 -2.3737399578094482 1.815469741821289 -8.847081184387207 29.094497680664062
0.9013829450019939 31.231241470463818 -50.9944468879237 15.142398834228516 32.943599700927734 13.881799697875977 -18.993000030517578 15.707499504089355 1.0611099004745483 5.210729598999023 -11.017099380493164 0.20404399931430817 -9.688249588012695 16.4064998626709 -11.778299331665039 9.492709159851074 -28.617097854614258 -20.962900161743164 -0.0 0.0 -0.0 -0.0 0.0 -0.0 -2.417221425191768e-13 2.162777064645266e-13 1.2086106854908296e-12 29.5740966796875 18.663097381591797 32.940101623535156 -16.901798248291016 -9.552800178527832 31.60009765625 -0.143234983086586 9.619979858398438 1.3741599321365356 -8.498225234632173e-09 -1.0467802624702927e-08 -3.3761904383311503e-09 -1.4713296359047945e-08 -1.8450601046993143e-08 -5.757242682591368e-09 -8.498225234632173e-09 -1.0467802624702927e-08 -3.376209534167174e-09 7.7309088706970215 5.474880218505859 0.41731396317481995 -8.498225234632173e-09 -1.0467802624702927e-08 -3.376196877624693e-09 2.9055399894714355 0.9651829600334167 0.10290198773145676 -8.498225234632173e-09 -1.0467802624702927e-08 -3.3761904383311503e-09 10.27859878540039 0.73180091381073 0.025912299752235413 -8.498225234632173e-09 -1.0467802624702927e-08 -3.3761777817886696e-09 2.2216696739196777 -0.7334870100021362 -0.2089199721813202 -2.417221425191768e-13 2.162777064645266e-13 1.2086106854908296e-12 -113.7239990234375 46.685699462890625 54.30419921875 28.02229881286621 -40.33449935913086 -84.4949951171875 5.444728374481201 -53.21430206298828 10.837699890136719 -6.38674446662435e-09 -5.809091874198202e-09 -1.0256206994796457e-09 -1.096259527599841e-08 -9.602564965405236e-09 -2.011210975538802e-09 -6.386756901122226e-09 -5.809104752785288e-09 -1.025588836078839e-09 -7.7309088706970215 5.474880218505859 -0.41731396317481995 -6.38674446662435e-09 -5.809091874198202e-09 -1.0256079319148625e-09 -2.9055399894714355 0.9651829600334167 -0.10290198773145676 -6.38674446662435e-09 -5.809091874198202e-09 -1.0256079319148625e-09 -10.27859878540039 0.73180091381073 -0.025912299752235413 -6.38674446662435e-09 -5.809091874198202e-09 -1.0256206994796457e-09 -2.2216696739196777 -0.7334870100021362 0.2089199721813202 -0.0 0.0 -0.0 -74.04869079589844 -56.54469680786133 -57.78929901123047 -2.0226001739501953 70.89070129394531 2.982919931411743 0.003913568798452616 0.16572199761867523 -3.627310037612915 -0.0 0.0 -0.0 12.3381986618042 9.888839721679688 0.05348719656467438 -0.21120700240135193 25.491701126098633 -2.526099920272827 2.49511981010437 -9.948490142822266 29.103498458862305
0.9495744252482898 31.282980153426667 -51.287228309462016 14.609397888183594 33.543601989746094 12.54010009765625 -19.056299209594727 16.880300521850586 1.5838099718093872 5.509960174560547 -10.90049934387207 0.31934696435928345 -9.543240547180176 16.79949951171875 -11.809300422668457 8.602209091186523 -28.64969825744629 -21.28009796142578 -0.0 0.0 -0.0 -0.0 0.0 -0.0 -3.0533323265580226e-13 2.417221425191768e-13 1.3612773018187307e-12 30.295398712158203 18.697799682617188 32.513797760009766 -17.101398468017578 -9.752349853515625 32.03339385986328 -0.2423049509525299 13.853299140930176 1.9872899055480957 -6.5708474217274215e-09 -6.890773285306295e-09 -3.6916569801093146e-09 -1.1393700205530877e-08 -1.2271699212362819e-08 -6.302370625377307e-09 -6.5708474217274215e-09 -6.89076040671921e-09 -3.6916696366517954e-09 7.7309088706970215 5.474880218505859 0.41731396317481995 -6.5708474217274215e-09 -6.89076040671921e-09 -3.6916696366517954e-09 2.9055399894714355 0.9651829600334167 0.10290198773145676 -6.570834987229546e-09 -6.890773285306295e-09 -3.6916569801093146e-09 10.27859878540039 0.73180091381073 0.025912299752235413 -6.570860300314507e-09 -6.890773285306295e-09 -3.691650540815772e-09 2.2216696739196777 -0.7334870100021362 -0.2089199721813202 -3.0533323265580226e-13 2.417221425191768e-13 1.354916179252541e-12 -114.11898803710938 44.85639572143555 55.18549346923828 27.829801559448242 -41.27170181274414 -86.19709014892578 6.5731000900268555 -56.41950225830078 12.220598220825195 -5.467220454136168e-09 -5.953349369036687e-09 3.9730851941754963e-10 -9.432214120863591e-09 -9.969384429098227e-09 4.6432915845606715e-10 -5.467233332723254e-09 -5.953374682121648e-09 3.973212314711816e-10 -7.7309088706970215 5.474880218505859 -0.41731396317481995 -5.467220454136168e-09 -5.9533618035345626e-09 3.973148754443656e-10 -2.9055399894714355 0.9651829600334167 -0.10290198773145676 -5.467233332723254e-09 -5.9533618035345626e-09 3.973148754443656e-10 -10.27859878540039 0.73180091381073 -0.025912299752235413 -5.467208019638292e-09 -5.953349369036687e-09 3.9730213563515804e-10 -2.2216696739196777 -0.7334870100021362 0.2089199721813202 -0.0 0.0 -0.0 -71.69879150390625 -56.050899505615234 -55.67929458618164 -2.0015697479248047 70.6520004272461 2.91448974609375 0.3568020164966583 -0.6538629531860352 -1.057689905166626 -0.0 0.0 -0.0 13.476200103759766 8.38577938079834 1.2797597646713257 -0.18151506781578064 28.773399353027344 -2.6388397216796875 3.083739995956421 -11.24109935760498 28.44169807434082
